<mxfile host="app.diagrams.net" modified="2024-02-18T21:17:12.902Z" agent="Mozilla/5.0 (Windows NT 10.0; Win64; x64) AppleWebKit/537.36 (KHTML, like Gecko) Chrome/121.0.0.0 Safari/537.36" etag="TTvZEkMp-jIrrI_qmGFm" version="23.1.5" type="device">
  <diagram name="Page-1" id="0RdEx-MJvAxjygLSG-Wo">
    <mxGraphModel dx="531" dy="289" grid="1" gridSize="10" guides="1" tooltips="1" connect="1" arrows="1" fold="1" page="1" pageScale="1" pageWidth="850" pageHeight="1100" math="0" shadow="0">
      <root>
        <mxCell id="0" />
        <mxCell id="1" parent="0" />
        <mxCell id="SCrrdeSI4FgJNzosNrEw-1" value="Internet" style="ellipse;shape=cloud;whiteSpace=wrap;html=1;fillColor=#f5f5f5;fontColor=#333333;strokeColor=#666666;" parent="1" vertex="1">
          <mxGeometry x="1100" y="340" width="195" height="130" as="geometry" />
        </mxCell>
        <mxCell id="SCrrdeSI4FgJNzosNrEw-2" value="Proxmox" style="whiteSpace=wrap;html=1;aspect=fixed;fillColor=#dae8fc;strokeColor=#6c8ebf;" parent="1" vertex="1">
          <mxGeometry x="1150" y="520" width="240" height="240" as="geometry" />
        </mxCell>
        <mxCell id="SCrrdeSI4FgJNzosNrEw-3" value="Firewall" style="rounded=0;whiteSpace=wrap;html=1;fillColor=#f8cecc;strokeColor=#b85450;" parent="1" vertex="1">
          <mxGeometry x="1165" y="540" width="120" height="60" as="geometry" />
        </mxCell>
        <mxCell id="SCrrdeSI4FgJNzosNrEw-4" value="" style="endArrow=none;html=1;rounded=0;entryX=0.55;entryY=0.95;entryDx=0;entryDy=0;entryPerimeter=0;exitX=0.25;exitY=0;exitDx=0;exitDy=0;" parent="1" source="SCrrdeSI4FgJNzosNrEw-2" target="SCrrdeSI4FgJNzosNrEw-1" edge="1">
          <mxGeometry width="50" height="50" relative="1" as="geometry">
            <mxPoint x="1215" y="540" as="sourcePoint" />
            <mxPoint x="1265" y="490" as="targetPoint" />
          </mxGeometry>
        </mxCell>
        <mxCell id="SCrrdeSI4FgJNzosNrEw-5" value="" style="endArrow=none;html=1;rounded=0;entryX=0.25;entryY=0;entryDx=0;entryDy=0;" parent="1" target="SCrrdeSI4FgJNzosNrEw-2" edge="1">
          <mxGeometry width="50" height="50" relative="1" as="geometry">
            <mxPoint x="1210" y="540" as="sourcePoint" />
            <mxPoint x="1265" y="540" as="targetPoint" />
          </mxGeometry>
        </mxCell>
        <mxCell id="SCrrdeSI4FgJNzosNrEw-9" value="" style="endArrow=none;html=1;rounded=0;entryX=0;entryY=0.5;entryDx=0;entryDy=0;" parent="1" target="SCrrdeSI4FgJNzosNrEw-3" edge="1">
          <mxGeometry width="50" height="50" relative="1" as="geometry">
            <mxPoint x="1065" y="570" as="sourcePoint" />
            <mxPoint x="1105" y="600" as="targetPoint" />
          </mxGeometry>
        </mxCell>
        <mxCell id="SCrrdeSI4FgJNzosNrEw-10" value="Management&lt;br&gt;(PC)" style="rounded=0;whiteSpace=wrap;html=1;fillColor=#ffe6cc;strokeColor=#d79b00;" parent="1" vertex="1">
          <mxGeometry x="945" y="540" width="120" height="60" as="geometry" />
        </mxCell>
        <mxCell id="SCrrdeSI4FgJNzosNrEw-11" value="" style="endArrow=none;html=1;rounded=0;entryX=0;entryY=0.5;entryDx=0;entryDy=0;exitX=1;exitY=0.75;exitDx=0;exitDy=0;" parent="1" source="SCrrdeSI4FgJNzosNrEw-10" target="SCrrdeSI4FgJNzosNrEw-2" edge="1">
          <mxGeometry width="50" height="50" relative="1" as="geometry">
            <mxPoint x="1105" y="670" as="sourcePoint" />
            <mxPoint x="1155" y="620" as="targetPoint" />
          </mxGeometry>
        </mxCell>
        <mxCell id="bt1Juj0rz55hdfGgeYWj-9" value="Internal Network&lt;br&gt;(Switch)" style="rounded=0;whiteSpace=wrap;html=1;" parent="1" vertex="1">
          <mxGeometry x="1485" y="540" width="120" height="55" as="geometry" />
        </mxCell>
        <mxCell id="bt1Juj0rz55hdfGgeYWj-10" value="" style="endArrow=none;html=1;rounded=0;exitX=1;exitY=0.5;exitDx=0;exitDy=0;entryX=0;entryY=0.5;entryDx=0;entryDy=0;" parent="1" source="SCrrdeSI4FgJNzosNrEw-3" target="bt1Juj0rz55hdfGgeYWj-9" edge="1">
          <mxGeometry width="50" height="50" relative="1" as="geometry">
            <mxPoint x="1285" y="580" as="sourcePoint" />
            <mxPoint x="1335" y="530" as="targetPoint" />
          </mxGeometry>
        </mxCell>
        <mxCell id="bt1Juj0rz55hdfGgeYWj-11" value="" style="endArrow=none;html=1;rounded=0;entryX=0.5;entryY=1;entryDx=0;entryDy=0;exitX=1;exitY=0.5;exitDx=0;exitDy=0;" parent="1" source="SCrrdeSI4FgJNzosNrEw-2" target="bt1Juj0rz55hdfGgeYWj-9" edge="1">
          <mxGeometry width="50" height="50" relative="1" as="geometry">
            <mxPoint x="1315" y="640" as="sourcePoint" />
            <mxPoint x="1365" y="590" as="targetPoint" />
            <Array as="points">
              <mxPoint x="1545" y="640" />
            </Array>
          </mxGeometry>
        </mxCell>
        <mxCell id="bt1Juj0rz55hdfGgeYWj-19" value="" style="group" parent="1" vertex="1" connectable="0">
          <mxGeometry x="1215" y="470" width="70" height="40" as="geometry" />
        </mxCell>
        <mxCell id="bt1Juj0rz55hdfGgeYWj-6" value="Adapter 2" style="text;html=1;strokeColor=none;fillColor=none;align=center;verticalAlign=middle;whiteSpace=wrap;rounded=0;" parent="bt1Juj0rz55hdfGgeYWj-19" vertex="1">
          <mxGeometry width="60" height="30" as="geometry" />
        </mxCell>
        <mxCell id="bt1Juj0rz55hdfGgeYWj-16" value="&lt;font style=&quot;font-size: 9px;&quot;&gt;WAN -&amp;gt; Firewall&lt;/font&gt;" style="text;html=1;strokeColor=none;fillColor=none;align=center;verticalAlign=middle;whiteSpace=wrap;rounded=0;" parent="bt1Juj0rz55hdfGgeYWj-19" vertex="1">
          <mxGeometry y="10" width="70" height="30" as="geometry" />
        </mxCell>
        <mxCell id="bt1Juj0rz55hdfGgeYWj-20" value="" style="group" parent="1" vertex="1" connectable="0">
          <mxGeometry x="1065" y="536" width="85" height="42" as="geometry" />
        </mxCell>
        <mxCell id="bt1Juj0rz55hdfGgeYWj-5" value="Adapter 1" style="text;html=1;strokeColor=none;fillColor=none;align=center;verticalAlign=middle;whiteSpace=wrap;rounded=0;" parent="bt1Juj0rz55hdfGgeYWj-20" vertex="1">
          <mxGeometry x="11" width="60" height="30" as="geometry" />
        </mxCell>
        <mxCell id="bt1Juj0rz55hdfGgeYWj-17" value="&lt;font size=&quot;1&quot;&gt;Firewall -&amp;gt; PC&lt;/font&gt;" style="text;html=1;strokeColor=none;fillColor=none;align=center;verticalAlign=middle;whiteSpace=wrap;rounded=0;" parent="bt1Juj0rz55hdfGgeYWj-20" vertex="1">
          <mxGeometry y="12" width="85" height="30" as="geometry" />
        </mxCell>
        <mxCell id="bt1Juj0rz55hdfGgeYWj-21" value="" style="group" parent="1" vertex="1" connectable="0">
          <mxGeometry x="1060" y="619" width="85" height="41" as="geometry" />
        </mxCell>
        <mxCell id="bt1Juj0rz55hdfGgeYWj-4" value="Adapter 1" style="text;html=1;strokeColor=none;fillColor=none;align=center;verticalAlign=middle;whiteSpace=wrap;rounded=0;" parent="bt1Juj0rz55hdfGgeYWj-21" vertex="1">
          <mxGeometry x="11" width="60" height="30" as="geometry" />
        </mxCell>
        <mxCell id="bt1Juj0rz55hdfGgeYWj-18" value="&lt;font size=&quot;1&quot;&gt;Proxmox -&amp;gt; PC&lt;/font&gt;" style="text;html=1;strokeColor=none;fillColor=none;align=center;verticalAlign=middle;whiteSpace=wrap;rounded=0;" parent="bt1Juj0rz55hdfGgeYWj-21" vertex="1">
          <mxGeometry y="11" width="85" height="30" as="geometry" />
        </mxCell>
        <mxCell id="bt1Juj0rz55hdfGgeYWj-22" value="" style="group" parent="1" vertex="1" connectable="0">
          <mxGeometry x="1445" y="610" width="100" height="60" as="geometry" />
        </mxCell>
        <mxCell id="bt1Juj0rz55hdfGgeYWj-13" value="Adapter 4" style="text;html=1;strokeColor=none;fillColor=none;align=center;verticalAlign=middle;whiteSpace=wrap;rounded=0;" parent="bt1Juj0rz55hdfGgeYWj-22" vertex="1">
          <mxGeometry x="40" width="60" height="30" as="geometry" />
        </mxCell>
        <mxCell id="bt1Juj0rz55hdfGgeYWj-15" value="&lt;font style=&quot;font-size: 9px;&quot;&gt;Proxmox-&amp;gt; Internal Network&lt;/font&gt;" style="text;html=1;strokeColor=none;fillColor=none;align=center;verticalAlign=middle;whiteSpace=wrap;rounded=0;" parent="bt1Juj0rz55hdfGgeYWj-22" vertex="1">
          <mxGeometry y="30" width="100" height="30" as="geometry" />
        </mxCell>
        <mxCell id="bt1Juj0rz55hdfGgeYWj-23" value="" style="group" parent="1" vertex="1" connectable="0">
          <mxGeometry x="1395" y="540" width="70" height="60" as="geometry" />
        </mxCell>
        <mxCell id="bt1Juj0rz55hdfGgeYWj-12" value="Adapter 3" style="text;html=1;strokeColor=none;fillColor=none;align=center;verticalAlign=middle;whiteSpace=wrap;rounded=0;" parent="bt1Juj0rz55hdfGgeYWj-23" vertex="1">
          <mxGeometry x="5" width="60" height="30" as="geometry" />
        </mxCell>
        <mxCell id="bt1Juj0rz55hdfGgeYWj-14" value="&lt;font style=&quot;font-size: 9px;&quot;&gt;Firewall -&amp;gt; Internal Network&lt;/font&gt;" style="text;html=1;strokeColor=none;fillColor=none;align=center;verticalAlign=middle;whiteSpace=wrap;rounded=0;spacing=2;spacingTop=0;horizontal=1;" parent="bt1Juj0rz55hdfGgeYWj-23" vertex="1">
          <mxGeometry y="30" width="70" height="30" as="geometry" />
        </mxCell>
        <mxCell id="bt1Juj0rz55hdfGgeYWj-24" value="Internet" style="ellipse;shape=cloud;whiteSpace=wrap;html=1;fillColor=#f5f5f5;fontColor=#333333;strokeColor=#666666;" parent="1" vertex="1">
          <mxGeometry x="358" y="340" width="195" height="130" as="geometry" />
        </mxCell>
        <mxCell id="bt1Juj0rz55hdfGgeYWj-25" value="Proxmox" style="whiteSpace=wrap;html=1;aspect=fixed;fillColor=#dae8fc;strokeColor=#6c8ebf;" parent="1" vertex="1">
          <mxGeometry x="408" y="520" width="240" height="240" as="geometry" />
        </mxCell>
        <mxCell id="bt1Juj0rz55hdfGgeYWj-26" value="" style="endArrow=none;html=1;rounded=0;entryX=0.55;entryY=0.95;entryDx=0;entryDy=0;entryPerimeter=0;exitX=0.25;exitY=0;exitDx=0;exitDy=0;" parent="1" source="bt1Juj0rz55hdfGgeYWj-25" target="bt1Juj0rz55hdfGgeYWj-24" edge="1">
          <mxGeometry width="50" height="50" relative="1" as="geometry">
            <mxPoint x="473" y="540" as="sourcePoint" />
            <mxPoint x="523" y="490" as="targetPoint" />
          </mxGeometry>
        </mxCell>
        <mxCell id="bt1Juj0rz55hdfGgeYWj-27" value="Management&lt;br&gt;(PC)" style="rounded=0;whiteSpace=wrap;html=1;fillColor=#ffe6cc;strokeColor=#d79b00;" parent="1" vertex="1">
          <mxGeometry x="203" y="540" width="120" height="60" as="geometry" />
        </mxCell>
        <mxCell id="bt1Juj0rz55hdfGgeYWj-28" value="" style="endArrow=none;html=1;rounded=0;entryX=0;entryY=0.5;entryDx=0;entryDy=0;exitX=1;exitY=0.75;exitDx=0;exitDy=0;" parent="1" source="bt1Juj0rz55hdfGgeYWj-27" target="bt1Juj0rz55hdfGgeYWj-25" edge="1">
          <mxGeometry width="50" height="50" relative="1" as="geometry">
            <mxPoint x="363" y="670" as="sourcePoint" />
            <mxPoint x="413" y="620" as="targetPoint" />
          </mxGeometry>
        </mxCell>
        <mxCell id="bt1Juj0rz55hdfGgeYWj-29" value="" style="group" parent="1" vertex="1" connectable="0">
          <mxGeometry x="473" y="470" width="90" height="40" as="geometry" />
        </mxCell>
        <mxCell id="bt1Juj0rz55hdfGgeYWj-30" value="Adapter 2" style="text;html=1;strokeColor=none;fillColor=none;align=center;verticalAlign=middle;whiteSpace=wrap;rounded=0;" parent="bt1Juj0rz55hdfGgeYWj-29" vertex="1">
          <mxGeometry x="5" width="60" height="30" as="geometry" />
        </mxCell>
        <mxCell id="bt1Juj0rz55hdfGgeYWj-31" value="&lt;font style=&quot;font-size: 9px;&quot;&gt;Proxmox -&amp;gt; WAN&lt;/font&gt;" style="text;html=1;strokeColor=none;fillColor=none;align=center;verticalAlign=middle;whiteSpace=wrap;rounded=0;" parent="bt1Juj0rz55hdfGgeYWj-29" vertex="1">
          <mxGeometry x="-10" y="10" width="90" height="30" as="geometry" />
        </mxCell>
        <mxCell id="bt1Juj0rz55hdfGgeYWj-32" value="" style="group" parent="1" vertex="1" connectable="0">
          <mxGeometry x="323" y="619.5" width="85" height="41" as="geometry" />
        </mxCell>
        <mxCell id="bt1Juj0rz55hdfGgeYWj-33" value="Adapter 1" style="text;html=1;strokeColor=none;fillColor=none;align=center;verticalAlign=middle;whiteSpace=wrap;rounded=0;" parent="bt1Juj0rz55hdfGgeYWj-32" vertex="1">
          <mxGeometry x="11" width="60" height="30" as="geometry" />
        </mxCell>
        <mxCell id="bt1Juj0rz55hdfGgeYWj-34" value="&lt;font size=&quot;1&quot;&gt;Proxmox -&amp;gt; Management&lt;/font&gt;" style="text;html=1;strokeColor=none;fillColor=none;align=center;verticalAlign=middle;whiteSpace=wrap;rounded=0;" parent="bt1Juj0rz55hdfGgeYWj-32" vertex="1">
          <mxGeometry y="20.5" width="85" height="30" as="geometry" />
        </mxCell>
        <mxCell id="bt1Juj0rz55hdfGgeYWj-35" value="Internet" style="ellipse;shape=cloud;whiteSpace=wrap;html=1;fillColor=#f5f5f5;fontColor=#333333;strokeColor=#666666;" parent="1" vertex="1">
          <mxGeometry x="1950" y="340" width="195" height="130" as="geometry" />
        </mxCell>
        <mxCell id="bt1Juj0rz55hdfGgeYWj-36" value="Proxmox" style="whiteSpace=wrap;html=1;aspect=fixed;fillColor=#dae8fc;strokeColor=#6c8ebf;" parent="1" vertex="1">
          <mxGeometry x="2000" y="520" width="240" height="240" as="geometry" />
        </mxCell>
        <mxCell id="bt1Juj0rz55hdfGgeYWj-37" value="Firewall" style="rounded=0;whiteSpace=wrap;html=1;fillColor=#f8cecc;strokeColor=#b85450;" parent="1" vertex="1">
          <mxGeometry x="2015" y="540" width="120" height="60" as="geometry" />
        </mxCell>
        <mxCell id="bt1Juj0rz55hdfGgeYWj-38" value="" style="endArrow=none;html=1;rounded=0;entryX=0.55;entryY=0.95;entryDx=0;entryDy=0;entryPerimeter=0;exitX=0.25;exitY=0;exitDx=0;exitDy=0;" parent="1" source="bt1Juj0rz55hdfGgeYWj-36" target="bt1Juj0rz55hdfGgeYWj-35" edge="1">
          <mxGeometry width="50" height="50" relative="1" as="geometry">
            <mxPoint x="2065" y="540" as="sourcePoint" />
            <mxPoint x="2115" y="490" as="targetPoint" />
          </mxGeometry>
        </mxCell>
        <mxCell id="bt1Juj0rz55hdfGgeYWj-39" value="" style="endArrow=none;html=1;rounded=0;entryX=0.25;entryY=0;entryDx=0;entryDy=0;" parent="1" target="bt1Juj0rz55hdfGgeYWj-36" edge="1">
          <mxGeometry width="50" height="50" relative="1" as="geometry">
            <mxPoint x="2060" y="540" as="sourcePoint" />
            <mxPoint x="2115" y="540" as="targetPoint" />
          </mxGeometry>
        </mxCell>
        <mxCell id="bt1Juj0rz55hdfGgeYWj-40" value="" style="endArrow=none;html=1;rounded=0;entryX=0;entryY=0.5;entryDx=0;entryDy=0;" parent="1" target="bt1Juj0rz55hdfGgeYWj-37" edge="1">
          <mxGeometry width="50" height="50" relative="1" as="geometry">
            <mxPoint x="1915" y="570" as="sourcePoint" />
            <mxPoint x="1955" y="600" as="targetPoint" />
          </mxGeometry>
        </mxCell>
        <mxCell id="bt1Juj0rz55hdfGgeYWj-41" value="Management&lt;br&gt;(PC)" style="rounded=0;whiteSpace=wrap;html=1;fillColor=#ffe6cc;strokeColor=#d79b00;" parent="1" vertex="1">
          <mxGeometry x="1795" y="540" width="120" height="60" as="geometry" />
        </mxCell>
        <mxCell id="bt1Juj0rz55hdfGgeYWj-42" value="" style="endArrow=none;html=1;rounded=0;entryX=0;entryY=0.5;entryDx=0;entryDy=0;exitX=1;exitY=0.75;exitDx=0;exitDy=0;" parent="1" source="bt1Juj0rz55hdfGgeYWj-41" target="bt1Juj0rz55hdfGgeYWj-36" edge="1">
          <mxGeometry width="50" height="50" relative="1" as="geometry">
            <mxPoint x="1955" y="670" as="sourcePoint" />
            <mxPoint x="2005" y="620" as="targetPoint" />
          </mxGeometry>
        </mxCell>
        <mxCell id="bt1Juj0rz55hdfGgeYWj-43" value="Internal Network&lt;br&gt;(Switch)" style="rounded=0;whiteSpace=wrap;html=1;" parent="1" vertex="1">
          <mxGeometry x="2335" y="540" width="120" height="55" as="geometry" />
        </mxCell>
        <mxCell id="bt1Juj0rz55hdfGgeYWj-44" value="" style="endArrow=none;html=1;rounded=0;" parent="1" edge="1">
          <mxGeometry width="50" height="50" relative="1" as="geometry">
            <mxPoint x="2135" y="563" as="sourcePoint" />
            <mxPoint x="2335" y="563" as="targetPoint" />
          </mxGeometry>
        </mxCell>
        <mxCell id="bt1Juj0rz55hdfGgeYWj-45" value="" style="endArrow=none;html=1;rounded=0;entryX=0.5;entryY=1;entryDx=0;entryDy=0;exitX=1;exitY=0.5;exitDx=0;exitDy=0;" parent="1" source="bt1Juj0rz55hdfGgeYWj-36" target="bt1Juj0rz55hdfGgeYWj-43" edge="1">
          <mxGeometry width="50" height="50" relative="1" as="geometry">
            <mxPoint x="2165" y="640" as="sourcePoint" />
            <mxPoint x="2215" y="590" as="targetPoint" />
            <Array as="points">
              <mxPoint x="2395" y="640" />
            </Array>
          </mxGeometry>
        </mxCell>
        <mxCell id="bt1Juj0rz55hdfGgeYWj-46" value="" style="group" parent="1" vertex="1" connectable="0">
          <mxGeometry x="2145" y="480" width="70" height="40" as="geometry" />
        </mxCell>
        <mxCell id="bt1Juj0rz55hdfGgeYWj-47" value="Adapter 2" style="text;html=1;strokeColor=none;fillColor=none;align=center;verticalAlign=middle;whiteSpace=wrap;rounded=0;" parent="bt1Juj0rz55hdfGgeYWj-46" vertex="1">
          <mxGeometry width="60" height="30" as="geometry" />
        </mxCell>
        <mxCell id="bt1Juj0rz55hdfGgeYWj-48" value="&lt;font style=&quot;font-size: 9px;&quot;&gt;WAN -&amp;gt; Firewall&lt;/font&gt;" style="text;html=1;strokeColor=none;fillColor=none;align=center;verticalAlign=middle;whiteSpace=wrap;rounded=0;" parent="bt1Juj0rz55hdfGgeYWj-46" vertex="1">
          <mxGeometry y="10" width="70" height="30" as="geometry" />
        </mxCell>
        <mxCell id="bt1Juj0rz55hdfGgeYWj-49" value="" style="group" parent="1" vertex="1" connectable="0">
          <mxGeometry x="1915" y="536" width="85" height="42" as="geometry" />
        </mxCell>
        <mxCell id="bt1Juj0rz55hdfGgeYWj-50" value="Adapter 1" style="text;html=1;strokeColor=none;fillColor=none;align=center;verticalAlign=middle;whiteSpace=wrap;rounded=0;" parent="bt1Juj0rz55hdfGgeYWj-49" vertex="1">
          <mxGeometry x="11" width="60" height="30" as="geometry" />
        </mxCell>
        <mxCell id="bt1Juj0rz55hdfGgeYWj-51" value="&lt;font size=&quot;1&quot;&gt;Firewall -&amp;gt; PC&lt;/font&gt;" style="text;html=1;strokeColor=none;fillColor=none;align=center;verticalAlign=middle;whiteSpace=wrap;rounded=0;" parent="bt1Juj0rz55hdfGgeYWj-49" vertex="1">
          <mxGeometry y="12" width="85" height="30" as="geometry" />
        </mxCell>
        <mxCell id="bt1Juj0rz55hdfGgeYWj-52" value="" style="group" parent="1" vertex="1" connectable="0">
          <mxGeometry x="1910" y="619" width="85" height="41" as="geometry" />
        </mxCell>
        <mxCell id="bt1Juj0rz55hdfGgeYWj-53" value="Adapter 1" style="text;html=1;strokeColor=none;fillColor=none;align=center;verticalAlign=middle;whiteSpace=wrap;rounded=0;" parent="bt1Juj0rz55hdfGgeYWj-52" vertex="1">
          <mxGeometry x="11" width="60" height="30" as="geometry" />
        </mxCell>
        <mxCell id="bt1Juj0rz55hdfGgeYWj-54" value="&lt;font size=&quot;1&quot;&gt;Proxmox -&amp;gt; PC&lt;/font&gt;" style="text;html=1;strokeColor=none;fillColor=none;align=center;verticalAlign=middle;whiteSpace=wrap;rounded=0;" parent="bt1Juj0rz55hdfGgeYWj-52" vertex="1">
          <mxGeometry y="11" width="85" height="30" as="geometry" />
        </mxCell>
        <mxCell id="bt1Juj0rz55hdfGgeYWj-55" value="" style="group" parent="1" vertex="1" connectable="0">
          <mxGeometry x="2295" y="610" width="100" height="60" as="geometry" />
        </mxCell>
        <mxCell id="bt1Juj0rz55hdfGgeYWj-56" value="Adapter 4" style="text;html=1;strokeColor=none;fillColor=none;align=center;verticalAlign=middle;whiteSpace=wrap;rounded=0;" parent="bt1Juj0rz55hdfGgeYWj-55" vertex="1">
          <mxGeometry x="40" width="60" height="30" as="geometry" />
        </mxCell>
        <mxCell id="bt1Juj0rz55hdfGgeYWj-57" value="&lt;font style=&quot;font-size: 9px;&quot;&gt;Proxmox-&amp;gt; Internal Network&lt;/font&gt;" style="text;html=1;strokeColor=none;fillColor=none;align=center;verticalAlign=middle;whiteSpace=wrap;rounded=0;" parent="bt1Juj0rz55hdfGgeYWj-55" vertex="1">
          <mxGeometry y="30" width="100" height="30" as="geometry" />
        </mxCell>
        <mxCell id="4ogNda7TXOOiU4f4gPOs-8" value="" style="endArrow=none;html=1;rounded=0;fillColor=#d5e8d4;strokeColor=#82b366;" edge="1" parent="bt1Juj0rz55hdfGgeYWj-55">
          <mxGeometry width="50" height="50" relative="1" as="geometry">
            <mxPoint x="-65" y="31" as="sourcePoint" />
            <mxPoint x="105" y="-15" as="targetPoint" />
            <Array as="points">
              <mxPoint x="105" y="31" />
            </Array>
          </mxGeometry>
        </mxCell>
        <mxCell id="4ogNda7TXOOiU4f4gPOs-10" value="" style="endArrow=none;html=1;rounded=0;fillColor=#ffe6cc;strokeColor=#d79b00;" edge="1" parent="bt1Juj0rz55hdfGgeYWj-55">
          <mxGeometry width="50" height="50" relative="1" as="geometry">
            <mxPoint x="-67" y="10" as="sourcePoint" />
            <mxPoint x="45" y="-15" as="targetPoint" />
            <Array as="points">
              <mxPoint x="45" y="10" />
            </Array>
          </mxGeometry>
        </mxCell>
        <mxCell id="bt1Juj0rz55hdfGgeYWj-58" value="" style="group" parent="1" vertex="1" connectable="0">
          <mxGeometry x="2245" y="540" width="70" height="60" as="geometry" />
        </mxCell>
        <mxCell id="bt1Juj0rz55hdfGgeYWj-59" value="Adapter 3" style="text;html=1;strokeColor=none;fillColor=none;align=center;verticalAlign=middle;whiteSpace=wrap;rounded=0;" parent="bt1Juj0rz55hdfGgeYWj-58" vertex="1">
          <mxGeometry x="5" width="60" height="30" as="geometry" />
        </mxCell>
        <mxCell id="bt1Juj0rz55hdfGgeYWj-60" value="&lt;font style=&quot;font-size: 9px;&quot;&gt;Firewall -&amp;gt; Internal Network&lt;/font&gt;" style="text;html=1;strokeColor=none;fillColor=none;align=center;verticalAlign=middle;whiteSpace=wrap;rounded=0;spacing=2;spacingTop=0;horizontal=1;" parent="bt1Juj0rz55hdfGgeYWj-58" vertex="1">
          <mxGeometry y="30" width="70" height="30" as="geometry" />
        </mxCell>
        <mxCell id="bt1Juj0rz55hdfGgeYWj-61" value="Internet" style="ellipse;shape=cloud;whiteSpace=wrap;html=1;fillColor=#f5f5f5;fontColor=#333333;strokeColor=#666666;" parent="1" vertex="1">
          <mxGeometry x="250" y="1180" width="195" height="130" as="geometry" />
        </mxCell>
        <mxCell id="bt1Juj0rz55hdfGgeYWj-62" value="Proxmox" style="whiteSpace=wrap;html=1;aspect=fixed;fillColor=#dae8fc;strokeColor=#6c8ebf;" parent="1" vertex="1">
          <mxGeometry x="300" y="1360" width="240" height="240" as="geometry" />
        </mxCell>
        <mxCell id="bt1Juj0rz55hdfGgeYWj-63" value="Firewall" style="rounded=0;whiteSpace=wrap;html=1;fillColor=#f8cecc;strokeColor=#b85450;" parent="1" vertex="1">
          <mxGeometry x="315" y="1380" width="120" height="60" as="geometry" />
        </mxCell>
        <mxCell id="bt1Juj0rz55hdfGgeYWj-64" value="" style="endArrow=none;html=1;rounded=0;entryX=0.55;entryY=0.95;entryDx=0;entryDy=0;entryPerimeter=0;exitX=0.25;exitY=0;exitDx=0;exitDy=0;" parent="1" source="bt1Juj0rz55hdfGgeYWj-62" target="bt1Juj0rz55hdfGgeYWj-61" edge="1">
          <mxGeometry width="50" height="50" relative="1" as="geometry">
            <mxPoint x="365" y="1380" as="sourcePoint" />
            <mxPoint x="415" y="1330" as="targetPoint" />
          </mxGeometry>
        </mxCell>
        <mxCell id="bt1Juj0rz55hdfGgeYWj-65" value="" style="endArrow=none;html=1;rounded=0;entryX=0.25;entryY=0;entryDx=0;entryDy=0;" parent="1" target="bt1Juj0rz55hdfGgeYWj-62" edge="1">
          <mxGeometry width="50" height="50" relative="1" as="geometry">
            <mxPoint x="360" y="1380" as="sourcePoint" />
            <mxPoint x="415" y="1380" as="targetPoint" />
          </mxGeometry>
        </mxCell>
        <mxCell id="bt1Juj0rz55hdfGgeYWj-66" value="" style="endArrow=none;html=1;rounded=0;entryX=0;entryY=0.5;entryDx=0;entryDy=0;" parent="1" target="bt1Juj0rz55hdfGgeYWj-63" edge="1">
          <mxGeometry width="50" height="50" relative="1" as="geometry">
            <mxPoint x="215" y="1410" as="sourcePoint" />
            <mxPoint x="255" y="1440" as="targetPoint" />
          </mxGeometry>
        </mxCell>
        <mxCell id="bt1Juj0rz55hdfGgeYWj-67" value="Management&lt;br&gt;(PC)" style="rounded=0;whiteSpace=wrap;html=1;fillColor=#ffe6cc;strokeColor=#d79b00;" parent="1" vertex="1">
          <mxGeometry x="95" y="1380" width="120" height="60" as="geometry" />
        </mxCell>
        <mxCell id="bt1Juj0rz55hdfGgeYWj-68" value="" style="endArrow=none;html=1;rounded=0;entryX=0;entryY=0.5;entryDx=0;entryDy=0;exitX=1;exitY=0.75;exitDx=0;exitDy=0;" parent="1" source="bt1Juj0rz55hdfGgeYWj-67" target="bt1Juj0rz55hdfGgeYWj-62" edge="1">
          <mxGeometry width="50" height="50" relative="1" as="geometry">
            <mxPoint x="255" y="1510" as="sourcePoint" />
            <mxPoint x="305" y="1460" as="targetPoint" />
          </mxGeometry>
        </mxCell>
        <mxCell id="bt1Juj0rz55hdfGgeYWj-69" value="Internal Network&lt;br&gt;(Switch)" style="rounded=0;whiteSpace=wrap;html=1;" parent="1" vertex="1">
          <mxGeometry x="635" y="1380" width="120" height="55" as="geometry" />
        </mxCell>
        <mxCell id="bt1Juj0rz55hdfGgeYWj-70" value="" style="endArrow=none;html=1;rounded=0;exitX=1;exitY=0.5;exitDx=0;exitDy=0;entryX=0;entryY=0.5;entryDx=0;entryDy=0;" parent="1" source="bt1Juj0rz55hdfGgeYWj-63" target="bt1Juj0rz55hdfGgeYWj-69" edge="1">
          <mxGeometry width="50" height="50" relative="1" as="geometry">
            <mxPoint x="435" y="1420" as="sourcePoint" />
            <mxPoint x="485" y="1370" as="targetPoint" />
          </mxGeometry>
        </mxCell>
        <mxCell id="bt1Juj0rz55hdfGgeYWj-71" value="" style="endArrow=none;html=1;rounded=0;entryX=0.5;entryY=1;entryDx=0;entryDy=0;exitX=1;exitY=0.5;exitDx=0;exitDy=0;" parent="1" source="bt1Juj0rz55hdfGgeYWj-62" target="bt1Juj0rz55hdfGgeYWj-69" edge="1">
          <mxGeometry width="50" height="50" relative="1" as="geometry">
            <mxPoint x="465" y="1480" as="sourcePoint" />
            <mxPoint x="515" y="1430" as="targetPoint" />
            <Array as="points">
              <mxPoint x="695" y="1480" />
            </Array>
          </mxGeometry>
        </mxCell>
        <mxCell id="bt1Juj0rz55hdfGgeYWj-88" value="DNS" style="rounded=0;whiteSpace=wrap;html=1;fillColor=#d5e8d4;strokeColor=#82b366;" parent="1" vertex="1">
          <mxGeometry x="315" y="1550" width="100" height="30" as="geometry" />
        </mxCell>
        <mxCell id="bt1Juj0rz55hdfGgeYWj-89" value="" style="group" parent="1" vertex="1" connectable="0">
          <mxGeometry x="502" y="1380" width="120" height="57" as="geometry" />
        </mxCell>
        <mxCell id="bt1Juj0rz55hdfGgeYWj-85" value="Adapter 3" style="text;html=1;strokeColor=none;fillColor=none;align=center;verticalAlign=middle;whiteSpace=wrap;rounded=0;" parent="bt1Juj0rz55hdfGgeYWj-89" vertex="1">
          <mxGeometry x="16" width="60" height="30" as="geometry" />
        </mxCell>
        <mxCell id="bt1Juj0rz55hdfGgeYWj-86" value="&lt;font style=&quot;font-size: 9px;&quot;&gt;Firewall -&amp;gt; Internal Network&lt;br&gt;(VLANS)&lt;br&gt;&lt;/font&gt;" style="text;html=1;strokeColor=none;fillColor=none;align=center;verticalAlign=middle;whiteSpace=wrap;rounded=0;spacing=2;spacingTop=0;horizontal=1;" parent="bt1Juj0rz55hdfGgeYWj-89" vertex="1">
          <mxGeometry y="27" width="120" height="30" as="geometry" />
        </mxCell>
        <mxCell id="bt1Juj0rz55hdfGgeYWj-90" value="" style="group" parent="1" vertex="1" connectable="0">
          <mxGeometry x="602" y="1454" width="130" height="56" as="geometry" />
        </mxCell>
        <mxCell id="bt1Juj0rz55hdfGgeYWj-82" value="Adapter 4" style="text;html=1;strokeColor=none;fillColor=none;align=center;verticalAlign=middle;whiteSpace=wrap;rounded=0;" parent="bt1Juj0rz55hdfGgeYWj-90" vertex="1">
          <mxGeometry x="33" width="60" height="30" as="geometry" />
        </mxCell>
        <mxCell id="bt1Juj0rz55hdfGgeYWj-83" value="&lt;font style=&quot;font-size: 9px;&quot;&gt;Proxmox-&amp;gt; Internal Network&lt;br&gt;(VLANS)&lt;br&gt;&lt;/font&gt;" style="text;html=1;strokeColor=none;fillColor=none;align=center;verticalAlign=middle;whiteSpace=wrap;rounded=0;" parent="bt1Juj0rz55hdfGgeYWj-90" vertex="1">
          <mxGeometry y="26" width="130" height="30" as="geometry" />
        </mxCell>
        <mxCell id="bt1Juj0rz55hdfGgeYWj-91" value="" style="group" parent="1" vertex="1" connectable="0">
          <mxGeometry x="445" y="1320" width="70" height="40" as="geometry" />
        </mxCell>
        <mxCell id="bt1Juj0rz55hdfGgeYWj-73" value="Adapter 2" style="text;html=1;strokeColor=none;fillColor=none;align=center;verticalAlign=middle;whiteSpace=wrap;rounded=0;" parent="bt1Juj0rz55hdfGgeYWj-91" vertex="1">
          <mxGeometry width="60" height="30" as="geometry" />
        </mxCell>
        <mxCell id="bt1Juj0rz55hdfGgeYWj-74" value="&lt;font style=&quot;font-size: 9px;&quot;&gt;WAN -&amp;gt; Firewall&lt;/font&gt;" style="text;html=1;strokeColor=none;fillColor=none;align=center;verticalAlign=middle;whiteSpace=wrap;rounded=0;" parent="bt1Juj0rz55hdfGgeYWj-91" vertex="1">
          <mxGeometry y="10" width="70" height="30" as="geometry" />
        </mxCell>
        <mxCell id="bt1Juj0rz55hdfGgeYWj-92" value="" style="group" parent="1" vertex="1" connectable="0">
          <mxGeometry x="215" y="1376" width="85" height="42" as="geometry" />
        </mxCell>
        <mxCell id="bt1Juj0rz55hdfGgeYWj-76" value="Adapter 1" style="text;html=1;strokeColor=none;fillColor=none;align=center;verticalAlign=middle;whiteSpace=wrap;rounded=0;" parent="bt1Juj0rz55hdfGgeYWj-92" vertex="1">
          <mxGeometry x="11" width="60" height="30" as="geometry" />
        </mxCell>
        <mxCell id="bt1Juj0rz55hdfGgeYWj-77" value="&lt;font size=&quot;1&quot;&gt;Firewall -&amp;gt; PC&lt;/font&gt;" style="text;html=1;strokeColor=none;fillColor=none;align=center;verticalAlign=middle;whiteSpace=wrap;rounded=0;" parent="bt1Juj0rz55hdfGgeYWj-92" vertex="1">
          <mxGeometry y="12" width="85" height="30" as="geometry" />
        </mxCell>
        <mxCell id="bt1Juj0rz55hdfGgeYWj-93" value="" style="group" parent="1" vertex="1" connectable="0">
          <mxGeometry x="210" y="1459" width="85" height="41" as="geometry" />
        </mxCell>
        <mxCell id="bt1Juj0rz55hdfGgeYWj-79" value="Adapter 1" style="text;html=1;strokeColor=none;fillColor=none;align=center;verticalAlign=middle;whiteSpace=wrap;rounded=0;" parent="bt1Juj0rz55hdfGgeYWj-93" vertex="1">
          <mxGeometry x="11" width="60" height="30" as="geometry" />
        </mxCell>
        <mxCell id="bt1Juj0rz55hdfGgeYWj-80" value="&lt;font size=&quot;1&quot;&gt;Proxmox -&amp;gt; PC&lt;/font&gt;" style="text;html=1;strokeColor=none;fillColor=none;align=center;verticalAlign=middle;whiteSpace=wrap;rounded=0;" parent="bt1Juj0rz55hdfGgeYWj-93" vertex="1">
          <mxGeometry y="11" width="85" height="30" as="geometry" />
        </mxCell>
        <mxCell id="bt1Juj0rz55hdfGgeYWj-94" value="Internet" style="ellipse;shape=cloud;whiteSpace=wrap;html=1;" parent="1" vertex="1">
          <mxGeometry x="359" y="1748" width="120" height="80" as="geometry" />
        </mxCell>
        <mxCell id="bt1Juj0rz55hdfGgeYWj-95" value="Firewall" style="rounded=0;whiteSpace=wrap;html=1;fillColor=#f8cecc;strokeColor=#b85450;" parent="1" vertex="1">
          <mxGeometry x="365" y="1870" width="120" height="60" as="geometry" />
        </mxCell>
        <mxCell id="bt1Juj0rz55hdfGgeYWj-96" value="" style="endArrow=none;html=1;rounded=0;entryX=0.5;entryY=0;entryDx=0;entryDy=0;exitX=0.55;exitY=0.95;exitDx=0;exitDy=0;exitPerimeter=0;" parent="1" source="bt1Juj0rz55hdfGgeYWj-94" target="bt1Juj0rz55hdfGgeYWj-95" edge="1">
          <mxGeometry width="50" height="50" relative="1" as="geometry">
            <mxPoint x="190" y="2010" as="sourcePoint" />
            <mxPoint x="240" y="1960" as="targetPoint" />
          </mxGeometry>
        </mxCell>
        <mxCell id="bt1Juj0rz55hdfGgeYWj-97" value="Inernal Network" style="rounded=0;whiteSpace=wrap;html=1;" parent="1" vertex="1">
          <mxGeometry x="365" y="1980" width="120" height="60" as="geometry" />
        </mxCell>
        <mxCell id="bt1Juj0rz55hdfGgeYWj-98" value="" style="endArrow=none;html=1;rounded=0;entryX=0.5;entryY=0;entryDx=0;entryDy=0;exitX=0.5;exitY=1;exitDx=0;exitDy=0;" parent="1" source="bt1Juj0rz55hdfGgeYWj-95" target="bt1Juj0rz55hdfGgeYWj-97" edge="1">
          <mxGeometry width="50" height="50" relative="1" as="geometry">
            <mxPoint x="190" y="2050" as="sourcePoint" />
            <mxPoint x="240" y="2000" as="targetPoint" />
          </mxGeometry>
        </mxCell>
        <mxCell id="bt1Juj0rz55hdfGgeYWj-100" value="Trunk&lt;br&gt;Carries multiple signals simultaneously" style="text;html=1;strokeColor=none;fillColor=none;align=left;verticalAlign=middle;whiteSpace=wrap;rounded=0;" parent="1" vertex="1">
          <mxGeometry x="433" y="1940" width="245" height="30" as="geometry" />
        </mxCell>
        <mxCell id="bt1Juj0rz55hdfGgeYWj-101" value="DNS" style="rounded=0;whiteSpace=wrap;html=1;" parent="1" vertex="1">
          <mxGeometry x="215" y="1980" width="85" height="30" as="geometry" />
        </mxCell>
        <mxCell id="bt1Juj0rz55hdfGgeYWj-102" value="Web" style="rounded=0;whiteSpace=wrap;html=1;" parent="1" vertex="1">
          <mxGeometry x="215" y="2030" width="85" height="30" as="geometry" />
        </mxCell>
        <mxCell id="bt1Juj0rz55hdfGgeYWj-103" value="" style="endArrow=none;html=1;rounded=0;entryX=0;entryY=0.25;entryDx=0;entryDy=0;exitX=1;exitY=0.5;exitDx=0;exitDy=0;" parent="1" source="bt1Juj0rz55hdfGgeYWj-101" target="bt1Juj0rz55hdfGgeYWj-97" edge="1">
          <mxGeometry width="50" height="50" relative="1" as="geometry">
            <mxPoint x="280" y="1995" as="sourcePoint" />
            <mxPoint x="460" y="2060" as="targetPoint" />
          </mxGeometry>
        </mxCell>
        <mxCell id="bt1Juj0rz55hdfGgeYWj-105" value="Intnernal" style="text;html=1;strokeColor=none;fillColor=none;align=center;verticalAlign=middle;whiteSpace=wrap;rounded=0;" parent="1" vertex="1">
          <mxGeometry x="300" y="1970" width="60" height="30" as="geometry" />
        </mxCell>
        <mxCell id="4ogNda7TXOOiU4f4gPOs-1" value="" style="endArrow=none;html=1;rounded=0;fillColor=#d5e8d4;strokeColor=#82b366;" edge="1" parent="1">
          <mxGeometry width="50" height="50" relative="1" as="geometry">
            <mxPoint x="2135" y="564" as="sourcePoint" />
            <mxPoint x="2335" y="564" as="targetPoint" />
          </mxGeometry>
        </mxCell>
        <mxCell id="4ogNda7TXOOiU4f4gPOs-2" value="" style="endArrow=none;html=1;rounded=0;fillColor=#ffe6cc;strokeColor=#d79b00;" edge="1" parent="1">
          <mxGeometry width="50" height="50" relative="1" as="geometry">
            <mxPoint x="2135" y="565" as="sourcePoint" />
            <mxPoint x="2335" y="565" as="targetPoint" />
          </mxGeometry>
        </mxCell>
        <mxCell id="4ogNda7TXOOiU4f4gPOs-3" value="" style="endArrow=none;html=1;rounded=0;fillColor=#e1d5e7;strokeColor=#9673a6;" edge="1" parent="1">
          <mxGeometry width="50" height="50" relative="1" as="geometry">
            <mxPoint x="2135" y="566" as="sourcePoint" />
            <mxPoint x="2335" y="566" as="targetPoint" />
          </mxGeometry>
        </mxCell>
        <mxCell id="4ogNda7TXOOiU4f4gPOs-4" value="" style="endArrow=none;html=1;rounded=0;fillColor=#008a00;strokeColor=#005700;" edge="1" parent="1">
          <mxGeometry width="50" height="50" relative="1" as="geometry">
            <mxPoint x="2135" y="567" as="sourcePoint" />
            <mxPoint x="2335" y="567" as="targetPoint" />
          </mxGeometry>
        </mxCell>
        <mxCell id="4ogNda7TXOOiU4f4gPOs-5" value="IT1" style="rounded=0;whiteSpace=wrap;html=1;fillColor=#1ba1e2;strokeColor=#006EAF;fontColor=#ffffff;" vertex="1" parent="1">
          <mxGeometry x="2160" y="640.5" width="70" height="20" as="geometry" />
        </mxCell>
        <mxCell id="4ogNda7TXOOiU4f4gPOs-6" value="Marketing1" style="rounded=0;whiteSpace=wrap;html=1;fillColor=#1ba1e2;strokeColor=#006EAF;fontColor=#ffffff;" vertex="1" parent="1">
          <mxGeometry x="2160" y="610" width="70" height="20" as="geometry" />
        </mxCell>
      </root>
    </mxGraphModel>
  </diagram>
</mxfile>
